<svg xmlns="http://www.w3.org/2000/svg" width="79" height="79" fill="none"><circle cx="39.5" cy="39.5" r="39.5" fill="#FFF7E9"/><path fill="#774E2E" d="M6.818 23.392C11.11 14.65 18.548 8.104 27.764 4.959 36.98 1.814 46.868 2.445 55.61 6.737c8.74 4.291 15.286 11.73 18.432 20.945 3.146 9.216 2.514 19.104-1.777 27.845a36.562 36.562 0 0 1-5.166 7.807 2.136 2.136 0 0 1-3.161.076 4.424 4.424 0 0 0-7.404 1.691 2.136 2.136 0 0 1-3.055 1.216 4.424 4.424 0 0 0-6.13 2.618 2.136 2.136 0 0 1-3.054 1.215 4.424 4.424 0 0 0-6.33 3.611 2.135 2.135 0 0 1-2.36 1.948 36.34 36.34 0 0 1-12.13-3.527C14.732 67.89 8.186 60.452 5.04 51.236c-3.146-9.215-2.515-19.104 1.777-27.844Z"/><path fill="#FFF6E7" d="M6.932 34.562c-.237-.176-.355-.386-.355-.63 0-.094.017-.185.05-.273a.84.84 0 0 1 .183-.285l.295-.335c.176-.216.382-.324.619-.324a.79.79 0 0 1 .264.05c.088.027.18.078.274.153a46.33 46.33 0 0 1 2.73 2.213 29.31 29.31 0 0 1 2.549 2.487c.128.122.24.182.335.182.182 0 .294-.121.335-.365l.893-3.563c.102-.4.308-.6.62-.6a.81.81 0 0 1 .212.031c.082.02.163.058.244.112l.355.193c.332.183.498.43.498.741 0 .102-.02.213-.061.335-.23.846-.464 1.74-.7 2.68l-.711 2.883a480.25 480.25 0 0 1-.751 2.985 175.592 175.592 0 0 1-.792 2.994c-.109.413-.342.62-.7.62-.102 0-.214-.02-.336-.061l-.335-.102c-.21-.054-.362-.142-.457-.264a.705.705 0 0 1-.142-.447v-.142a.712.712 0 0 1 .041-.162c.216-.805.43-1.604.64-2.396a136.227 136.227 0 0 0 .64-2.507.575.575 0 0 0 .01-.112.48.48 0 0 0-.062-.233 1.024 1.024 0 0 0-.142-.224 38.812 38.812 0 0 0-2.995-2.974 47.882 47.882 0 0 0-3.248-2.66Zm12.47.335a.728.728 0 0 1 .346-.528c.19-.122.504-.182.944-.182.237 0 .42.06.548.182.135.122.203.291.203.508a.381.381 0 0 1-.01.091.376.376 0 0 0-.01.092c-.075.44-.136.896-.183 1.37-.047.474-.071.954-.071 1.441 0 .63.054 1.225.162 1.787.115.555.315 1.042.6 1.462.29.413.683.741 1.177.985.5.237 1.137.355 1.908.355a2.67 2.67 0 0 0 1.148-.233 2.27 2.27 0 0 0 .822-.64c.223-.278.389-.602.497-.975.115-.372.173-.774.173-1.208 0-.433-.048-.86-.142-1.279a8.097 8.097 0 0 0-.366-1.238 10.682 10.682 0 0 0-.528-1.218c-.196-.4-.406-.802-.63-1.208a1.099 1.099 0 0 1-.141-.498c0-.264.139-.487.416-.67l.416-.274c.183-.122.355-.183.518-.183.25 0 .46.153.63.457.256.454.503.914.74 1.38.237.461.444.935.62 1.422.182.487.325.992.426 1.513.108.514.162 1.045.162 1.593 0 .765-.128 1.462-.385 2.092-.25.629-.61 1.17-1.076 1.624a4.84 4.84 0 0 1-1.685 1.035c-.65.25-1.374.376-2.173.376-.866 0-1.638-.152-2.314-.457a4.804 4.804 0 0 1-1.696-1.238 5.457 5.457 0 0 1-1.045-1.889 7.663 7.663 0 0 1-.356-2.375c0-.596.034-1.191.102-1.787.074-.602.159-1.164.254-1.685Zm22.359 2.822c-.082 0-.153.065-.214.193-.257.501-.53.954-.822 1.36a7.278 7.278 0 0 1-.863 1.036 4.021 4.021 0 0 1-.863.66c-.284.149-.551.223-.802.223-.243 0-.47-.05-.68-.152-.203-.108-.426-.308-.67-.6a10.951 10.951 0 0 1-.822-1.207 61.726 61.726 0 0 1-1.127-2.01.915.915 0 0 0-.233-.295c-.075-.067-.142-.101-.203-.101-.088 0-.17.095-.244.284a3.738 3.738 0 0 0-.193.782c-.054.331-.098.734-.132 1.208-.027.467-.04.985-.04 1.553 0 .338.017.677.05 1.015.041.339.061.687.061 1.046a.64.64 0 0 1-.101.345.93.93 0 0 1-.274.264 1.27 1.27 0 0 1-.396.193 1.564 1.564 0 0 1-.477.07c-.339 0-.582-.202-.731-.608-.15-.406-.223-1.056-.223-1.95 0-1.13.06-2.155.182-3.075.129-.927.308-1.72.538-2.376.237-.663.515-1.174.833-1.533.325-.365.687-.548 1.086-.548.352 0 .687.203 1.005.61.325.399.673 1.048 1.046 1.948.148.366.307.708.477 1.026.175.318.348.595.517.832.176.23.346.413.508.548.162.129.308.193.436.193.129 0 .25-.027.366-.081.122-.06.257-.186.406-.376.156-.196.335-.48.538-.852.21-.373.467-.87.771-1.493.163-.325.308-.595.437-.812.129-.216.257-.389.386-.517.128-.136.264-.23.406-.285a1.2 1.2 0 0 1 .477-.091c.21 0 .416.112.62.335.202.223.399.521.588.893.196.372.386.806.569 1.3.182.494.358 1.011.527 1.553.176.541.346 1.093.508 1.655l.487 1.583c.04.15.068.254.081.315a.632.632 0 0 1-.081.548c-.068.108-.159.207-.274.295a1.48 1.48 0 0 1-.396.213 1.19 1.19 0 0 1-.426.08c-.19 0-.339-.02-.447-.06a.53.53 0 0 1-.243-.244 3.523 3.523 0 0 1-.173-.487c-.081-.264-.18-.575-.295-.934-.108-.365-.23-.751-.365-1.157a16.17 16.17 0 0 0-.396-1.117 6.7 6.7 0 0 0-.375-.853c-.122-.23-.23-.345-.325-.345Zm15.059 0c-.081 0-.152.065-.213.193-.257.501-.532.954-.822 1.36a7.278 7.278 0 0 1-.863 1.036 4.019 4.019 0 0 1-.863.66c-.284.149-.552.223-.802.223-.244 0-.47-.05-.68-.152-.203-.108-.427-.308-.67-.6a10.951 10.951 0 0 1-.823-1.207 61.916 61.916 0 0 1-1.127-2.01.915.915 0 0 0-.233-.295c-.074-.067-.142-.101-.203-.101-.088 0-.17.095-.244.284a3.732 3.732 0 0 0-.193.782 13.69 13.69 0 0 0-.132 1.208c-.027.467-.04.985-.04 1.553 0 .338.017.677.05 1.015.041.339.061.687.061 1.046a.64.64 0 0 1-.101.345.93.93 0 0 1-.274.264 1.27 1.27 0 0 1-.396.193 1.564 1.564 0 0 1-.477.07c-.338 0-.582-.202-.731-.608-.149-.406-.223-1.056-.223-1.95 0-1.13.06-2.155.182-3.075.129-.927.308-1.72.538-2.376.237-.663.515-1.174.833-1.533.325-.365.687-.548 1.086-.548.352 0 .687.203 1.005.61.325.399.673 1.048 1.046 1.948.149.366.308.708.477 1.026a8.6 8.6 0 0 0 .517.832c.176.23.346.413.508.548.163.129.308.193.437.193.128 0 .25-.027.365-.081.122-.06.257-.186.406-.376.156-.196.335-.48.538-.852.21-.373.467-.87.772-1.493.162-.325.308-.595.436-.812.129-.216.257-.389.386-.517.128-.136.264-.23.406-.285a1.2 1.2 0 0 1 .477-.091c.21 0 .416.112.62.335.202.223.399.521.588.893.196.372.386.806.569 1.3.182.494.358 1.011.528 1.553.176.541.345 1.093.507 1.655l.487 1.583c.041.15.068.254.082.315a.632.632 0 0 1-.081.548 1.121 1.121 0 0 1-.275.295 1.48 1.48 0 0 1-.396.213 1.19 1.19 0 0 1-.426.08c-.19 0-.338-.02-.447-.06a.53.53 0 0 1-.243-.244 3.523 3.523 0 0 1-.173-.487c-.081-.264-.18-.575-.294-.934-.108-.365-.23-.751-.366-1.157a16.17 16.17 0 0 0-.396-1.117 6.7 6.7 0 0 0-.375-.853c-.122-.23-.23-.345-.325-.345Zm3.12-3.157c-.236-.176-.354-.386-.354-.63 0-.094.017-.185.05-.273a.84.84 0 0 1 .183-.285l.294-.335c.176-.216.383-.324.62-.324a.79.79 0 0 1 .264.05c.088.027.179.078.274.153.947.71 1.858 1.448 2.73 2.213.88.758 1.73 1.587 2.549 2.487.128.122.24.182.335.182.182 0 .294-.121.335-.365l.893-3.563c.101-.4.308-.6.62-.6a.81.81 0 0 1 .212.031c.082.02.163.058.244.112l.355.193c.332.183.498.43.498.741 0 .102-.02.213-.061.335-.23.846-.464 1.74-.7 2.68l-.711 2.883a480.25 480.25 0 0 1-.751 2.985 175.592 175.592 0 0 1-.792 2.994c-.109.413-.342.62-.7.62-.102 0-.214-.02-.336-.061l-.335-.102c-.21-.054-.362-.142-.457-.264a.706.706 0 0 1-.142-.447v-.142a.717.717 0 0 1 .04-.162c.218-.805.43-1.604.64-2.396a136.226 136.226 0 0 0 .64-2.507.567.567 0 0 0 .01-.112.48.48 0 0 0-.06-.233 1.024 1.024 0 0 0-.143-.224 38.794 38.794 0 0 0-2.995-2.974 47.867 47.867 0 0 0-3.248-2.66Z"/><path fill="#DDA85F" d="M63.423 18.015c-.179-.718-1.492-1.258-2.328-.898-1.194.479-1.731.898-1.314 2.276.12.48.717 1.558 1.015 1.618.418.18 1.433.24 1.732-.06.895-.839 1.015-2.396.895-2.936Z"/><path fill="#F2CB7D" d="M60.893 20.086c.11.368 1.92-.282 1.705-.935-.418-1.098-.428-1.263-.777-1.2-.648.205-.99 1.848-.928 2.135Z"/><path fill="#DDA85F" d="M20.621 23.07c-.179-.719-1.492-1.258-2.328-.898-1.194.479-1.731.898-1.313 2.276.119.48.716 1.558 1.014 1.617.418.18 1.433.24 1.732-.06.895-.838 1.015-2.396.895-2.935Z"/><path fill="#F2CB7D" d="M18.091 25.14c.11.368 1.92-.282 1.705-.934-.418-1.098-.428-1.264-.777-1.201-.648.206-.989 1.848-.928 2.136Z"/><path fill="#DDA85F" d="M63.74 55.835c-.104-.423-.877-.74-1.369-.529-.702.282-1.018.529-.772 1.34.07.281.421.916.597.95.245.107.843.142 1.018-.034.527-.494.597-1.41.527-1.727Z"/><path fill="#F2CB7D" d="M62.252 57.053c.065.216 1.13-.166 1.003-.55-.246-.646-.252-.743-.457-.707-.38.121-.582 1.088-.546 1.257Z"/><path fill="#DDA85F" d="M29.926 9.964c-1.014.253-1.774 2.111-1.267 3.294.676 1.69 2.28 1.943 4.054 1.014 1.52-.76 1.605-3.464 1.183-3.97-1.267-1.267-3.21-.507-3.97-.338Z"/><path fill="#F2CB7D" d="M29.874 11.057c-.506.591-.929 2.957.338 2.619 2.28-.676 3.886-2.957 2.872-3.295-1.267-.422-2.618 0-3.21.676Z"/><path fill="#DDA85F" d="M40.644 55.862c-.809.203-1.416 1.686-1.011 2.63.54 1.348 1.82 1.55 3.236.809 1.214-.607 1.281-2.765.944-3.17-1.012-1.01-2.562-.404-3.169-.269Z"/><path fill="#F2CB7D" d="M40.603 56.735c-.405.472-.742 2.36.27 2.09 1.82-.54 3.101-2.36 2.292-2.63-1.011-.337-2.09 0-2.562.54Z"/><path fill="#DDA85F" d="M48.609 25.003c-.204-.818-1.698-1.431-2.648-1.022-1.358.545-1.97 1.022-1.494 2.589.136.545.815 1.771 1.154 1.84.476.203 1.63.272 1.97-.069 1.018-.954 1.154-2.725 1.018-3.338Z"/><path fill="#F2CB7D" d="M46.834 28.028c.586.226 1.434-2.647.376-3.024-1.833-.566-2.06-.717-2.306-.225-.34 1.002 1.495 3.041 1.93 3.249Z"/><path fill="#DDA85F" d="M22.927 52.07c-.203-.818-1.697-1.43-2.647-1.022-1.358.545-1.97 1.022-1.494 2.589.136.545.815 1.771 1.154 1.84.475.204 1.63.272 1.97-.069 1.017-.954 1.153-2.725 1.017-3.338Z"/><path fill="#F2CB7D" d="M21.152 55.095c.586.226 1.435-2.647.377-3.024-1.834-.566-2.06-.717-2.306-.225-.34 1.001 1.495 3.041 1.93 3.249Z"/><path fill="#DDA85F" d="M28.485 65.095c-.158-.63-1.314-1.103-2.05-.788-1.051.42-1.524.788-1.156 1.997.105.42.63 1.367.893 1.42.368.157 1.262.21 1.524-.053.789-.736.894-2.103.789-2.576Z"/><path fill="#F2CB7D" d="M27.592 64.623c-.105-.474-2.313.21-2.103 1.05.42 1.42.42 1.63.841 1.578.789-.21 1.314-2.26 1.262-2.629Z"/></svg>